<svg version="1.1" id="Layer_1" xmlns="http://www.w3.org/2000/svg" x="0" y="0" viewBox="0 0 640 160" style="enable-background:new 0 0 640 160" xml:space="preserve">
  <style>
    .st0{fill:#1e1e1e}
  </style>
  <path class="st0" d="m32.4 97.6-26-87.1-.2-.6c0-.8.4-1.2 1.4-1.2h19.7c1 0 1.6.4 1.8 1.3L44 68.5c0 .3.2.4.4.4.1 0 .3-.1.3-.4L59.3 10c.3-1 .9-1.3 1.8-1.3h19.3c.6 0 1 .1 1.2.5.3.3.3.8.1 1.3L55.3 97.6c-.3.9-.8 1.3-1.7 1.3H34c-.8 0-1.4-.4-1.6-1.3zM98.4 96.1a30 30 0 0 1-12.3-11.8c-2.9-5-4.3-11-4.3-17.6V40.9c0-6.5 1.4-12.3 4.3-17.3 3-5 7-9 12.3-11.8a38.8 38.8 0 0 1 18.4-4.2c7 0 13.1 1.4 18.5 4.2 5.3 2.8 9.4 6.7 12.3 11.8 3 5 4.4 10.8 4.4 17.3v25.8c0 6.7-1.5 12.6-4.4 17.6-2.9 5.1-7 9-12.3 11.8a39.2 39.2 0 0 1-18.5 4.2c-7 0-13-1.4-18.4-4.2zm28.4-18c2.5-2.7 3.8-6.3 3.8-10.8V40.6c0-4.3-1.3-7.9-3.8-10.6a13 13 0 0 0-10-4c-4 0-7.3 1.3-9.8 4a15 15 0 0 0-3.8 10.6v26.7c0 4.5 1.2 8 3.8 10.7a13 13 0 0 0 9.8 4c4.1 0 7.5-1.3 10-4zM227 9.1c.2.3.4.7.4 1.1v15.3c0 .5-.2.8-.5 1.1-.3.3-.7.5-1 .5h-22.6c-.5 0-.7.2-.7.6v69.7c0 .4-.1.8-.4 1-.3.4-.7.5-1.1.5h-18.3c-.5 0-.8-.1-1.1-.4-.3-.3-.5-.7-.5-1.1V27.7c0-.4-.2-.6-.6-.6h-21.8c-.5 0-.8-.2-1.1-.5-.3-.3-.5-.6-.5-1V10.1c0-.4.2-.8.5-1.1.3-.3.6-.5 1-.5h67.1c.4 0 .8.2 1.1.5zM298.7 26.5c-.3.3-.7.5-1.1.5H257c-.4 0-.7.2-.7.6v15.9c0 .4.3.6.7.6H283c.4 0 .8.1 1.1.5.3.3.5.6.5 1v15.1c0 .5-.2.8-.5 1.1-.3.3-.7.5-1.1.5h-26c-.3 0-.6.2-.6.6v17c0 .5.3.7.7.7h40.5c.4 0 .8.1 1 .4.4.3.5.7.5 1.1v15.2c0 .5-.1.8-.4 1.1-.3.3-.7.5-1.1.5h-61c-.4 0-.8-.2-1.1-.5-.3-.3-.5-.6-.5-1V10.1c0-.4.2-.8.5-1.1.3-.3.7-.4 1-.4h61c.5 0 .9.1 1.2.4.3.3.4.7.4 1.1v15.2c0 .5-.1.8-.4 1.1zM308.8 98.5c-.3-.3-.5-.7-.5-1.1V80.6c0-.7.2-1.3.7-2l39.4-50.9c.2-.1.2-.3.1-.5 0-.1-.2-.2-.5-.2H310c-.5 0-.8-.2-1.1-.5-.3-.3-.5-.6-.5-1V10.1c0-.4.2-.8.5-1.1.3-.3.6-.5 1-.5h61.4c.5 0 .8.2 1.1.5.3.3.5.7.5 1.1V27c0 .7-.2 1.3-.7 1.9l-39.7 51c-.1 0-.2.2-.1.4 0 .2.3.3.5.3h38.4c.5 0 .8.1 1.1.4.3.3.5.7.5 1.1v15.2c0 .5-.2.8-.5 1.1-.3.3-.6.5-1 .5h-61.4c-.4 0-.8-.2-1.1-.5zM538.4 9.1c.3-.3.7-.4 1.1-.4h18.3c.4 0 .8.1 1.1.4.3.3.5.7.5 1.1v87.2c0 .4-.2.8-.5 1-.3.4-.7.5-1 .5h-17.6c-.9 0-1.5-.3-1.8-1l-29.7-49.3c-.1-.2-.3-.3-.5-.3-.1 0-.2.2-.2.6v48.5c0 .4 0 .8-.4 1-.3.4-.6.5-1 .5h-18.4c-.4 0-.8-.1-1-.4-.4-.3-.5-.7-.5-1.1V10.2c0-.4.1-.8.4-1.1.3-.3.7-.4 1.1-.4H506c.9 0 1.5.3 1.8 1l29.5 49.1c.2.3.4.4.6.3.1 0 .2-.2.2-.6l-.1-48.3c0-.4.1-.8.4-1zM630.5 26.5c-.3.3-.6.5-1 .5H589c-.5 0-.7.2-.7.6v15.9c0 .4.2.6.7.6h25.9c.4 0 .8.1 1 .5.4.3.5.6.5 1v15.1c0 .5-.1.8-.4 1.1-.3.3-.7.5-1.1.5h-26c-.4 0-.6.2-.6.6v17c0 .5.2.7.7.7h40.5c.4 0 .7.1 1 .4.3.3.5.7.5 1.1v15.2c0 .5-.1.8-.5 1.1-.3.3-.6.5-1 .5h-61c-.5 0-.8-.2-1.1-.5-.3-.3-.5-.6-.5-1V10.1c0-.4.2-.8.5-1.1.3-.3.6-.4 1-.4h61c.5 0 .8.1 1.1.4.3.3.5.7.5 1.1v15.2c0 .5-.1.8-.5 1.1zM449.9 150.8l-5.9-13-5.2-11.7c-.4-1-.7-1-1.3-.2l-18.6 20-.5.5c-.2.1-.3.4-.6.3-.3-.1-.2-.4-.2-.7V48.9c0-.6-.3-1.4.2-1.7.6-.2 1 .5 1.4 1l41 36.6 28.4 25.5 3 2.7c.1.2.6.3.4.7-.1.4-.6.3-.9.3h-10.9l-17 .3c-1.1 0-1.2.3-.7 1.3l10.4 23.4c.6 1.3.2 1.7-.9 2.2l-21.6 9.6h-.5zM408.2 41.5c-1 0-3-.4-4-3l-5.7-13-1.3-3a4.4 4.4 0 0 1-.3-3.5c.3-.8 1-1.8 2.5-2.5l5.3-2.4c.7-.3 1.3-.4 2-.4 1.7 0 3.1 1 3.8 2.6l7.3 16.6a5.7 5.7 0 0 1 .4 1 4 4 0 0 1-2.4 4.6l-5.8 2.6c-.6.3-1.2.4-1.8.4zM400.4 58.2a3 3 0 0 1-1 0h-1l-4.8-.7-12.4-1.7A4.7 4.7 0 0 1 378 54c-.7-1-1-2.2-.7-3.6l.7-5.3c.4-3 2.6-3.7 3.3-3.9h1.8l17.7 2.5c1.3.1 2.3.7 3 1.6.5.7 1 1.7.8 3.2l-.9 6.1a4 4 0 0 1-3.1 3.6zM448.7 60c-1.6 0-3-1-3.8-2.7l-2.4-5.4a4.3 4.3 0 0 1-.2-3.4c.3-.7.9-1.7 2.3-2.3l16.7-7.5c.6-.2 1.2-.4 1.8-.4 1.6 0 3 1 3.7 2.5l2.7 6 .2.8a4 4 0 0 1-2.5 4.6l-16.5 7.3c-.7.3-1.3.5-2 .5zM388.8 86.8c-1.7 0-3.2-1-3.9-2.7l-2.4-5.4a4.3 4.3 0 0 1-.1-3.4c.3-.7 1-1.7 2.4-2.4l16.5-7.2c.5-.2 1.1-.5 2-.5 1.5 0 3 1 3.6 2.5l2.6 6 .3.9c.1 1 .2 3.3-2.6 4.5l-16.5 7.3c-.6.3-1.3.4-2 .4zM443.3 16.5v2l-.7 4.8-1.8 12.4A4.7 4.7 0 0 1 439 39c-1 .7-2.2 1-3.6.7l-5.2-.7c-3-.4-3.8-2.6-4-3.3V34l2.5-17.7a4.2 4.2 0 0 1 4.9-3.8l6 .9a4 4 0 0 1 3.7 3.2z"/>
</svg>